<?xml version="1.0" standalone="no"?>
<!DOCTYPE svg PUBLIC "-//W3C//DTD SVG 20010904//EN"
 "http://www.w3.org/TR/2001/REC-SVG-20010904/DTD/svg10.dtd">
<svg version="1.0" xmlns="http://www.w3.org/2000/svg"
 width="384.000000pt" height="384.000000pt" viewBox="0 0 384.000000 384.000000"
 preserveAspectRatio="xMidYMid meet">
<metadata>
Created by potrace 1.11, written by Peter Selinger 2001-2013
</metadata>
<g transform="translate(0.000000,384.000000) scale(0.100000,-0.100000)"
fill="#000000" stroke="none">
<path d="M1810 3339 c-63 -22 -135 -47 -160 -56 -25 -8 -54 -19 -65 -23 -19
-9 -454 -164 -770 -275 -82 -29 -189 -67 -237 -85 l-88 -32 5 -32 c2 -18 6
-64 10 -102 3 -38 8 -76 10 -84 2 -8 6 -44 10 -80 5 -59 10 -96 20 -170 2 -14
6 -52 10 -85 8 -85 15 -146 20 -175 3 -14 7 -52 10 -85 3 -33 8 -78 11 -100
10 -82 32 -272 39 -340 2 -22 11 -98 19 -170 40 -346 55 -467 58 -469 2 -1 80
-44 173 -96 94 -51 184 -101 200 -110 17 -9 211 -117 432 -239 l403 -223 52
27 c56 29 910 502 1063 588 50 28 93 55 96 60 4 5 10 43 13 86 4 42 9 90 11
106 2 17 11 93 20 170 9 77 18 158 21 180 5 45 8 70 24 205 6 52 13 109 15
125 2 17 6 57 10 90 3 33 10 92 15 130 5 39 12 93 14 120 3 28 21 187 40 354
20 168 36 308 36 312 0 9 -32 21 -395 151 -154 55 -342 122 -417 149 -76 27
-202 72 -280 100 -79 28 -181 64 -228 81 -47 17 -89 32 -95 34 -5 2 -62 -14
-125 -37z"/>
</g>
</svg>
